<svg id="visual" viewBox="0 0 1920 450" width="1920" height="450" xmlns="http://www.w3.org/2000/svg" xmlns:xlink="http://www.w3.org/1999/xlink" version="1.1"><path d="M0 194L21.3 202.5C42.7 211 85.3 228 128 224.2C170.7 220.3 213.3 195.7 256 193C298.7 190.3 341.3 209.7 384 217C426.7 224.3 469.3 219.7 512 216.7C554.7 213.7 597.3 212.3 640 216.7C682.7 221 725.3 231 768 234.3C810.7 237.7 853.3 234.3 896 226.8C938.7 219.3 981.3 207.7 1024 210C1066.7 212.3 1109.3 228.7 1152 233.8C1194.7 239 1237.3 233 1280 228.5C1322.7 224 1365.3 221 1408 212.8C1450.7 204.7 1493.3 191.3 1536 194.5C1578.7 197.7 1621.3 217.3 1664 215.3C1706.7 213.3 1749.3 189.7 1792 185.3C1834.7 181 1877.3 196 1898.7 203.5L1920 211L1920 451L1898.7 451C1877.3 451 1834.7 451 1792 451C1749.3 451 1706.7 451 1664 451C1621.3 451 1578.7 451 1536 451C1493.3 451 1450.7 451 1408 451C1365.3 451 1322.7 451 1280 451C1237.3 451 1194.7 451 1152 451C1109.3 451 1066.7 451 1024 451C981.3 451 938.7 451 896 451C853.3 451 810.7 451 768 451C725.3 451 682.7 451 640 451C597.3 451 554.7 451 512 451C469.3 451 426.7 451 384 451C341.3 451 298.7 451 256 451C213.3 451 170.7 451 128 451C85.3 451 42.7 451 21.3 451L0 451Z" fill="#3b80d5"></path><path d="M0 248L21.3 250.2C42.7 252.3 85.3 256.7 128 253.7C170.7 250.7 213.3 240.3 256 232.5C298.7 224.7 341.3 219.3 384 228.8C426.7 238.3 469.3 262.7 512 272.2C554.7 281.7 597.3 276.3 640 263.8C682.7 251.3 725.3 231.7 768 233C810.7 234.3 853.3 256.7 896 258.2C938.7 259.7 981.3 240.3 1024 240.5C1066.7 240.7 1109.3 260.3 1152 260C1194.7 259.7 1237.3 239.3 1280 239.8C1322.7 240.3 1365.3 261.7 1408 260.5C1450.7 259.3 1493.3 235.7 1536 230C1578.7 224.3 1621.3 236.7 1664 237.5C1706.7 238.3 1749.3 227.7 1792 225.3C1834.7 223 1877.3 229 1898.7 232L1920 235L1920 451L1898.7 451C1877.3 451 1834.7 451 1792 451C1749.3 451 1706.7 451 1664 451C1621.3 451 1578.7 451 1536 451C1493.3 451 1450.7 451 1408 451C1365.3 451 1322.7 451 1280 451C1237.3 451 1194.7 451 1152 451C1109.3 451 1066.7 451 1024 451C981.3 451 938.7 451 896 451C853.3 451 810.7 451 768 451C725.3 451 682.7 451 640 451C597.3 451 554.7 451 512 451C469.3 451 426.7 451 384 451C341.3 451 298.7 451 256 451C213.3 451 170.7 451 128 451C85.3 451 42.7 451 21.3 451L0 451Z" fill="#2e68aa"></path><path d="M0 318L21.3 314.3C42.7 310.7 85.3 303.3 128 295.8C170.7 288.3 213.3 280.7 256 283C298.7 285.3 341.3 297.7 384 298.7C426.7 299.7 469.3 289.3 512 285.3C554.7 281.3 597.3 283.7 640 291.7C682.7 299.7 725.3 313.3 768 307.8C810.7 302.3 853.3 277.7 896 268.5C938.7 259.3 981.3 265.7 1024 269C1066.7 272.3 1109.3 272.7 1152 275.8C1194.7 279 1237.3 285 1280 292.3C1322.7 299.7 1365.3 308.3 1408 312C1450.7 315.7 1493.3 314.3 1536 311C1578.7 307.7 1621.3 302.3 1664 302C1706.7 301.7 1749.3 306.3 1792 309.3C1834.7 312.3 1877.3 313.7 1898.7 314.3L1920 315L1920 451L1898.7 451C1877.3 451 1834.7 451 1792 451C1749.3 451 1706.7 451 1664 451C1621.3 451 1578.7 451 1536 451C1493.3 451 1450.7 451 1408 451C1365.3 451 1322.7 451 1280 451C1237.3 451 1194.7 451 1152 451C1109.3 451 1066.7 451 1024 451C981.3 451 938.7 451 896 451C853.3 451 810.7 451 768 451C725.3 451 682.7 451 640 451C597.3 451 554.7 451 512 451C469.3 451 426.7 451 384 451C341.3 451 298.7 451 256 451C213.3 451 170.7 451 128 451C85.3 451 42.7 451 21.3 451L0 451Z" fill="#255182"></path><path d="M0 351L21.3 344.5C42.7 338 85.3 325 128 324.3C170.7 323.7 213.3 335.3 256 339C298.7 342.7 341.3 338.3 384 336.5C426.7 334.7 469.3 335.3 512 335C554.7 334.7 597.3 333.3 640 330.2C682.7 327 725.3 322 768 323C810.7 324 853.3 331 896 336.2C938.7 341.3 981.3 344.7 1024 346.2C1066.7 347.7 1109.3 347.3 1152 343.7C1194.7 340 1237.3 333 1280 333.2C1322.7 333.3 1365.3 340.7 1408 343.3C1450.7 346 1493.3 344 1536 335.8C1578.7 327.7 1621.3 313.3 1664 311.8C1706.7 310.3 1749.3 321.7 1792 329C1834.7 336.3 1877.3 339.7 1898.7 341.3L1920 343L1920 451L1898.7 451C1877.3 451 1834.7 451 1792 451C1749.3 451 1706.7 451 1664 451C1621.3 451 1578.7 451 1536 451C1493.3 451 1450.7 451 1408 451C1365.3 451 1322.7 451 1280 451C1237.3 451 1194.7 451 1152 451C1109.3 451 1066.7 451 1024 451C981.3 451 938.7 451 896 451C853.3 451 810.7 451 768 451C725.3 451 682.7 451 640 451C597.3 451 554.7 451 512 451C469.3 451 426.7 451 384 451C341.3 451 298.7 451 256 451C213.3 451 170.7 451 128 451C85.3 451 42.7 451 21.3 451L0 451Z" fill="#1e3b5b"></path><path d="M0 367L21.3 369.3C42.7 371.7 85.3 376.3 128 373C170.7 369.7 213.3 358.3 256 359.8C298.7 361.3 341.3 375.7 384 380.8C426.7 386 469.3 382 512 376.3C554.7 370.7 597.3 363.3 640 365.8C682.7 368.3 725.3 380.7 768 383.5C810.7 386.3 853.3 379.7 896 379C938.7 378.3 981.3 383.7 1024 382C1066.7 380.3 1109.3 371.7 1152 367.7C1194.7 363.7 1237.3 364.3 1280 361.7C1322.7 359 1365.3 353 1408 357C1450.7 361 1493.3 375 1536 373.3C1578.7 371.7 1621.3 354.3 1664 351.8C1706.7 349.3 1749.3 361.7 1792 363.8C1834.7 366 1877.3 358 1898.7 354L1920 350L1920 451L1898.7 451C1877.3 451 1834.7 451 1792 451C1749.3 451 1706.7 451 1664 451C1621.3 451 1578.7 451 1536 451C1493.3 451 1450.7 451 1408 451C1365.3 451 1322.7 451 1280 451C1237.3 451 1194.7 451 1152 451C1109.3 451 1066.7 451 1024 451C981.3 451 938.7 451 896 451C853.3 451 810.7 451 768 451C725.3 451 682.7 451 640 451C597.3 451 554.7 451 512 451C469.3 451 426.7 451 384 451C341.3 451 298.7 451 256 451C213.3 451 170.7 451 128 451C85.3 451 42.7 451 21.3 451L0 451Z" fill="#172637"></path><path d="M0 420L21.3 417.5C42.7 415 85.3 410 128 405.3C170.7 400.7 213.3 396.3 256 397C298.7 397.7 341.3 403.3 384 405C426.7 406.7 469.3 404.3 512 403.8C554.7 403.3 597.3 404.7 640 407C682.7 409.3 725.3 412.7 768 411.5C810.7 410.3 853.3 404.7 896 401.3C938.7 398 981.3 397 1024 397.3C1066.7 397.7 1109.3 399.3 1152 401.7C1194.7 404 1237.3 407 1280 411.8C1322.7 416.7 1365.3 423.3 1408 418.3C1450.7 413.3 1493.3 396.7 1536 388.8C1578.7 381 1621.3 382 1664 390.2C1706.7 398.3 1749.3 413.7 1792 420.5C1834.7 427.3 1877.3 425.7 1898.7 424.8L1920 424L1920 451L1898.7 451C1877.3 451 1834.7 451 1792 451C1749.3 451 1706.7 451 1664 451C1621.3 451 1578.7 451 1536 451C1493.3 451 1450.7 451 1408 451C1365.3 451 1322.7 451 1280 451C1237.3 451 1194.7 451 1152 451C1109.3 451 1066.7 451 1024 451C981.3 451 938.7 451 896 451C853.3 451 810.7 451 768 451C725.3 451 682.7 451 640 451C597.3 451 554.7 451 512 451C469.3 451 426.7 451 384 451C341.3 451 298.7 451 256 451C213.3 451 170.7 451 128 451C85.3 451 42.7 451 21.3 451L0 451Z" fill="#0d1116"></path></svg>