<svg id="visual" viewBox="0 0 1200 300" width="1200" height="300" xmlns="http://www.w3.org/2000/svg" xmlns:xlink="http://www.w3.org/1999/xlink" version="1.1"><path d="M0 91L22.2 95C44.3 99 88.7 107 133.2 101C177.7 95 222.3 75 266.8 78C311.3 81 355.7 107 400 105.5C444.3 104 488.7 75 533.2 67C577.7 59 622.3 72 666.8 83.5C711.3 95 755.7 105 800 113.5C844.3 122 888.7 129 933.2 116C977.7 103 1022.3 70 1066.8 58C1111.3 46 1155.7 55 1177.8 59.5L1200 64L1200 0L1177.8 0C1155.7 0 1111.3 0 1066.8 0C1022.3 0 977.7 0 933.2 0C888.7 0 844.3 0 800 0C755.7 0 711.3 0 666.8 0C622.3 0 577.7 0 533.2 0C488.7 0 444.3 0 400 0C355.7 0 311.3 0 266.8 0C222.3 0 177.7 0 133.2 0C88.7 0 44.3 0 22.2 0L0 0Z" fill="#b54cb5"></path><path d="M0 157L22.2 156C44.3 155 88.7 153 133.2 149C177.7 145 222.3 139 266.8 141.5C311.3 144 355.7 155 400 144C444.3 133 488.7 100 533.2 97.5C577.7 95 622.3 123 666.8 133.5C711.3 144 755.7 137 800 140.5C844.3 144 888.7 158 933.2 152C977.7 146 1022.3 120 1066.8 105.5C1111.3 91 1155.7 88 1177.8 86.5L1200 85L1200 62L1177.8 57.5C1155.7 53 1111.3 44 1066.8 56C1022.3 68 977.7 101 933.2 114C888.7 127 844.3 120 800 111.5C755.7 103 711.3 93 666.8 81.5C622.3 70 577.7 57 533.2 65C488.7 73 444.3 102 400 103.5C355.7 105 311.3 79 266.8 76C222.3 73 177.7 93 133.2 99C88.7 105 44.3 97 22.2 93L0 89Z" fill="#a939a9"></path><path d="M0 169L22.2 173.5C44.3 178 88.7 187 133.2 183.5C177.7 180 222.3 164 266.8 160.5C311.3 157 355.7 166 400 156.5C444.3 147 488.7 119 533.2 121.5C577.7 124 622.3 157 666.8 171.5C711.3 186 755.7 182 800 181.5C844.3 181 888.7 184 933.2 174C977.7 164 1022.3 141 1066.8 126.5C1111.3 112 1155.7 106 1177.8 103L1200 100L1200 83L1177.8 84.5C1155.7 86 1111.3 89 1066.8 103.5C1022.3 118 977.7 144 933.2 150C888.7 156 844.3 142 800 138.5C755.7 135 711.3 142 666.8 131.5C622.3 121 577.7 93 533.2 95.5C488.7 98 444.3 131 400 142C355.7 153 311.3 142 266.8 139.5C222.3 137 177.7 143 133.2 147C88.7 151 44.3 153 22.2 154L0 155Z" fill="#9d239d"></path><path d="M0 202L22.2 204.5C44.3 207 88.7 212 133.2 209.5C177.7 207 222.3 197 266.8 194C311.3 191 355.7 195 400 185C444.3 175 488.7 151 533.2 157.5C577.7 164 622.3 201 666.8 217.5C711.3 234 755.7 230 800 230.5C844.3 231 888.7 236 933.2 224C977.7 212 1022.3 183 1066.8 164.5C1111.3 146 1155.7 138 1177.8 134L1200 130L1200 98L1177.8 101C1155.7 104 1111.3 110 1066.8 124.5C1022.3 139 977.7 162 933.2 172C888.7 182 844.3 179 800 179.5C755.7 180 711.3 184 666.8 169.5C622.3 155 577.7 122 533.2 119.5C488.7 117 444.3 145 400 154.5C355.7 164 311.3 155 266.8 158.5C222.3 162 177.7 178 133.2 181.5C88.7 185 44.3 176 22.2 171.5L0 167Z" fill="#8f148f"></path><path d="M0 250L22.2 256C44.3 262 88.7 274 133.2 274C177.7 274 222.3 262 266.8 256.5C311.3 251 355.7 252 400 253C444.3 254 488.7 255 533.2 258.5C577.7 262 622.3 268 666.8 274C711.3 280 755.7 286 800 286C844.3 286 888.7 280 933.2 279.5C977.7 279 1022.3 284 1066.8 284C1111.3 284 1155.7 279 1177.8 276.5L1200 274L1200 128L1177.8 132C1155.7 136 1111.3 144 1066.8 162.5C1022.3 181 977.7 210 933.2 222C888.7 234 844.3 229 800 228.5C755.7 228 711.3 232 666.8 215.5C622.3 199 577.7 162 533.2 155.5C488.7 149 444.3 173 400 183C355.7 193 311.3 189 266.8 192C222.3 195 177.7 205 133.2 207.5C88.7 210 44.3 205 22.2 202.5L0 200Z" fill="#7e137f"></path><path d="M0 301L22.2 301C44.3 301 88.7 301 133.2 301C177.7 301 222.3 301 266.8 301C311.3 301 355.7 301 400 301C444.3 301 488.7 301 533.2 301C577.7 301 622.3 301 666.8 301C711.3 301 755.7 301 800 301C844.3 301 888.7 301 933.2 301C977.7 301 1022.3 301 1066.8 301C1111.3 301 1155.7 301 1177.8 301L1200 301L1200 272L1177.8 274.5C1155.7 277 1111.3 282 1066.8 282C1022.3 282 977.7 277 933.2 277.5C888.7 278 844.3 284 800 284C755.7 284 711.3 278 666.8 272C622.3 266 577.7 260 533.2 256.5C488.7 253 444.3 252 400 251C355.7 250 311.3 249 266.8 254.5C222.3 260 177.7 272 133.2 272C88.7 272 44.3 260 22.2 254L0 248Z" fill="#6e116f"></path></svg>